<svg xmlns="http://www.w3.org/2000/svg" viewBox="0 0 1200 675" width="100%" height="100%">
  <defs>
    <pattern id="dot-grid" x="0" y="0" width="30" height="30" patternUnits="userSpaceOnUse">
      <circle cx="15" cy="15" r="2" fill="#e5e5e5" />
    </pattern>
    <style>
      .stroke-main { fill: none; stroke: #000000; stroke-width: 3.5; stroke-linecap: round; stroke-linejoin: round; }
      .stroke-thin { fill: none; stroke: #000000; stroke-width: 2.5; stroke-linecap: round; stroke-linejoin: round; }
      .fill-bg { fill: #ffffff; }
      .fill-primary { fill: #14213d; }
      .fill-accent { fill: #fca311; }
      .fill-gray { fill: #e5e5e5; }
      .shadow { fill: #14213d; }
      .text-main { font-family: system-ui, -apple-system, 'Segoe UI', Roboto, Helvetica, Arial, sans-serif; font-weight: 800; fill: #14213d; }
      .text-light { font-family: system-ui, -apple-system, 'Segoe UI', Roboto, Helvetica, Arial, sans-serif; font-weight: 800; fill: #ffffff; }
    </style>
  </defs>

  <rect width="100%" height="100%" fill="url(#dot-grid)" />

  <rect x="330" y="200" width="380" height="380" rx="190" class="shadow" />
  <rect x="320" y="190" width="380" height="380" rx="190" class="fill-bg stroke-main" />
  
  <path d="M 320 380 L 700 380 M 510 190 L 510 570" class="stroke-thin" stroke-dasharray="10 10" stroke="#e5e5e5" />

  <g id="Student1">
    <path d="M 370 480 L 350 610 L 380 610 L 390 480 Z" class="fill-gray stroke-main" />
    <path d="M 400 480 L 410 610 L 440 610 L 420 480 Z" class="fill-primary stroke-main" />
    
    <path d="M 350 610 L 380 610 Q 380 625 365 625 L 350 625 Z" class="fill-primary stroke-main" />
    <path d="M 410 610 L 440 610 Q 440 625 425 625 L 410 625 Z" class="fill-primary stroke-main" />

    <path d="M 380 370 L 460 380 L 460 410 L 380 400 Z" class="fill-accent stroke-main" />
    
    <rect x="340" y="320" width="90" height="170" rx="35" class="fill-accent stroke-main" />
    
    <circle cx="390" cy="250" r="45" class="fill-bg stroke-main" />
    
    <path d="M 405 245 Q 410 240 415 245" class="stroke-main" />
    <path d="M 405 260 Q 410 270 415 260" class="stroke-main" />
    
    <path d="M 345 250 C 340 200, 410 190, 430 230 C 420 220, 390 220, 380 240 Z" class="fill-primary stroke-main" />
  </g>

  <g id="Package">
    <rect x="468" y="348" width="84" height="64" rx="6" class="shadow" />
    <rect x="460" y="340" width="84" height="64" rx="6" class="fill-gray stroke-main" />
    <rect x="492" y="340" width="20" height="64" class="fill-accent stroke-main" />
    <line x1="460" y1="375" x2="544" y2="375" class="stroke-thin" />
  </g>

  <path d="M 390 390 L 470 400 Q 480 405 470 415 L 390 420 Z" class="fill-accent stroke-main" />
  <circle cx="470" cy="410" r="10" class="fill-accent stroke-main" />

  <path d="M 610 390 L 530 400 Q 520 405 530 415 L 610 420 Z" class="fill-primary stroke-main" />
  <circle cx="530" cy="410" r="10" class="fill-primary stroke-main" />

  <g id="Student2">
    <path d="M 630 480 L 650 610 L 620 610 L 610 480 Z" class="fill-gray stroke-main" />
    <path d="M 590 480 L 580 610 L 550 610 L 570 480 Z" class="fill-accent stroke-main" />
    
    <path d="M 620 610 L 650 610 Q 650 625 635 625 L 620 625 Z" class="fill-accent stroke-main" />
    <path d="M 550 610 L 580 610 Q 580 625 565 625 L 550 625 Z" class="fill-accent stroke-main" />

    <rect x="640" y="340" width="45" height="110" rx="15" class="fill-accent stroke-main" />
    
    <rect x="560" y="320" width="90" height="170" rx="35" class="fill-primary stroke-main" />
    
    <circle cx="610" cy="250" r="45" class="fill-bg stroke-main" />
    
    <path d="M 595 245 Q 590 240 585 245" class="stroke-main" />
    <path d="M 595 260 Q 590 270 585 260" class="stroke-main" />
    
    <circle cx="645" cy="215" r="22" class="fill-primary stroke-main" />
    <path d="M 565 235 C 575 190, 650 190, 655 240 C 640 220, 610 220, 600 240 Z" class="fill-primary stroke-main" />
  </g>


  <g id="Phone" transform="translate(820, 60)">
    <rect x="12" y="12" width="310" height="570" rx="36" class="shadow" />
    <rect x="0" y="0" width="310" height="570" rx="36" class="fill-bg stroke-main" />
    
    <rect x="15" y="15" width="280" height="540" rx="24" class="fill-gray stroke-main" />
    
    <rect x="110" y="25" width="90" height="14" rx="7" class="fill-bg stroke-main" />
    
    <rect x="25" y="55" width="260" height="55" rx="14" class="fill-bg stroke-main" />
    <text x="45" y="90" font-size="22" class="text-main">ReNest</text>
    <line x1="245" y1="75" x2="265" y2="75" class="stroke-main" />
    <line x1="245" y1="85" x2="265" y2="85" class="stroke-main" />

    <rect x="25" y="130" width="120" height="150" rx="14" class="fill-bg stroke-main" />
    <rect x="35" y="140" width="100" height="80" rx="10" class="fill-gray stroke-thin" />
    <path d="M 55 185 Q 85 135 115 185" class="stroke-thin" />
    <rect x="50" y="180" width="16" height="26" rx="6" class="fill-primary stroke-thin" />
    <rect x="104" y="180" width="16" height="26" rx="6" class="fill-primary stroke-thin" />
    <text x="35" y="260" font-size="16" class="text-main">₹899</text>

    <rect x="165" y="130" width="120" height="150" rx="14" class="fill-bg stroke-main" />
    <rect x="175" y="140" width="100" height="80" rx="10" class="fill-gray stroke-thin" />
    <rect x="200" y="150" width="50" height="60" rx="6" class="fill-accent stroke-thin" />
    <rect x="205" y="155" width="40" height="15" class="fill-bg stroke-thin" />
    <circle cx="210" cy="185" r="3" class="fill-bg" />
    <circle cx="225" cy="185" r="3" class="fill-bg" />
    <circle cx="240" cy="185" r="3" class="fill-bg" />
    <circle cx="210" cy="198" r="3" class="fill-bg" />
    <circle cx="225" cy="198" r="3" class="fill-bg" />
    <circle cx="240" cy="198" r="3" class="fill-bg" />
    <text x="175" y="260" font-size="16" class="text-main">₹350</text>
    
    <rect x="25" y="300" width="260" height="85" rx="14" class="fill-bg stroke-main" />
    <rect x="35" y="310" width="65" height="65" rx="10" class="fill-gray stroke-thin" />
    <rect x="42" y="340" width="50" height="14" rx="2" class="fill-accent stroke-thin" transform="rotate(-15 42 340)" />
    <rect x="42" y="355" width="50" height="14" rx="2" class="fill-primary stroke-thin" />
    <text x="115" y="340" font-size="16" class="text-main">Textbooks</text>
    <text x="115" y="365" font-size="16" class="text-main" fill="#fca311">₹1200</text>

    <rect x="25" y="405" width="260" height="65" rx="14" class="fill-bg stroke-main" />
    <rect x="35" y="415" width="45" height="45" rx="8" class="fill-accent stroke-thin" />
    <rect x="45" y="425" width="25" height="30" rx="6" class="fill-primary stroke-thin" />
    <path d="M 48 425 C 48 415, 67 415, 67 425" class="stroke-thin" style="stroke: #ffffff;" />
    <text x="95" y="445" font-size="16" class="text-main">Backpack</text>
    <text x="220" y="445" font-size="16" class="text-main">₹600</text>

    <rect x="25" y="490" width="260" height="50" rx="16" class="fill-bg stroke-main" />
    <circle cx="70" cy="515" r="12" class="fill-primary stroke-main" />
    <circle cx="155" cy="510" r="8" class="stroke-main" />
    <line x1="161" y1="516" x2="167" y2="522" class="stroke-main" />
    <circle cx="240" cy="510" r="7" class="stroke-main" />
    <path d="M 230 523 C 230 515, 250 515, 250 523" class="stroke-main" />
  </g>


  <g id="Card-Laptop" transform="translate(100, 120)">
    <rect x="10" y="10" width="140" height="140" rx="22" class="shadow" />
    <rect x="0" y="0" width="140" height="140" rx="22" class="fill-bg stroke-main" />
    <rect x="30" y="35" width="80" height="50" rx="6" class="fill-gray stroke-main" />
    <rect x="15" y="85" width="110" height="14" rx="4" class="fill-primary stroke-main" />
    <rect x="60" y="88" width="20" height="4" rx="2" class="fill-bg stroke-thin" />
    <rect x="35" y="115" width="70" height="24" rx="12" class="fill-accent stroke-main" />
    <text x="70" y="132" font-size="14" text-anchor="middle" class="text-main">₹25,000</text>
  </g>

  <g id="Card-Bicycle" transform="translate(530, 40)">
    <rect x="10" y="10" width="160" height="130" rx="22" class="shadow" />
    <rect x="0" y="0" width="160" height="130" rx="22" class="fill-bg stroke-main" />
    <circle cx="45" cy="70" r="22" class="fill-gray stroke-main" />
    <circle cx="115" cy="70" r="22" class="fill-gray stroke-main" />
    <circle cx="45" cy="70" r="5" class="fill-primary" />
    <circle cx="115" cy="70" r="5" class="fill-primary" />
    <path d="M 45 70 L 65 35 L 100 35 L 115 70" class="stroke-main" />
    <path d="M 65 35 L 80 70 L 115 70" class="stroke-main" />
    <path d="M 100 35 L 95 15" class="stroke-main" />
    <path d="M 65 35 L 60 15" class="stroke-main" />
    <rect x="53" y="10" width="18" height="6" rx="3" class="fill-primary stroke-main" />
    <path d="M 95 15 L 105 15" class="stroke-main" />
    <rect x="45" y="105" width="70" height="24" rx="12" class="fill-gray stroke-main" />
    <text x="80" y="122" font-size="14" text-anchor="middle" class="text-main">₹3,500</text>
  </g>

  <g id="Card-Chair" transform="translate(130, 420)">
    <rect x="10" y="10" width="130" height="150" rx="22" class="shadow" />
    <rect x="0" y="0" width="130" height="150" rx="22" class="fill-bg stroke-main" />
    <line x1="65" y1="100" x2="65" y2="115" class="stroke-main" />
    <path d="M 40 125 L 65 115 L 90 125" class="stroke-main" />
    <rect x="40" y="85" width="50" height="15" rx="6" class="fill-primary stroke-main" />
    <rect x="48" y="35" width="34" height="45" rx="10" class="fill-accent stroke-main" />
    <path d="M 40 85 L 35 70 L 48 70" class="stroke-thin" />
    <path d="M 90 85 L 95 70 L 82 70" class="stroke-thin" />
    <rect x="35" y="135" width="60" height="24" rx="12" class="fill-gray stroke-main" />
    <text x="65" y="152" font-size="14" text-anchor="middle" class="text-main">₹850</text>
  </g>

  <g id="Card-Books" transform="translate(710, 490)">
    <rect x="8" y="8" width="140" height="120" rx="22" class="shadow" />
    <rect x="0" y="0" width="140" height="120" rx="22" class="fill-bg stroke-main" />
    <rect x="35" y="70" width="75" height="16" rx="4" class="fill-primary stroke-main" />
    <rect x="30" y="52" width="80" height="16" rx="4" class="fill-accent stroke-main" />
    <rect x="40" y="34" width="65" height="16" rx="4" class="fill-gray stroke-main" />
    <line x1="45" y1="70" x2="45" y2="86" class="stroke-thin" />
    <line x1="40" y1="52" x2="40" y2="68" class="stroke-thin" />
    <line x1="50" y1="34" x2="50" y2="50" class="stroke-thin" />
    <rect x="40" y="95" width="60" height="24" rx="12" class="fill-accent stroke-main" />
    <text x="70" y="112" font-size="14" text-anchor="middle" class="text-main">₹450</text>
  </g>


  <g id="RupeeTag" transform="translate(740, 260)">
    <rect x="6" y="6" width="85" height="36" rx="18" class="shadow" />
    <rect x="0" y="0" width="85" height="36" rx="18" class="fill-accent stroke-main" />
    <text x="42.5" y="24" font-size="18" text-anchor="middle" class="text-main">₹499</text>
  </g>

  <g id="ChatBubble" transform="translate(280, 150)">
    <rect x="6" y="6" width="80" height="55" rx="20" class="shadow" />
    <path d="M 20 0 L 60 0 C 71 0 80 9 80 20 L 80 35 C 80 46 71 55 60 55 L 35 55 L 10 70 L 18 52 C 7 48 0 38 0 25 L 0 20 C 0 9 9 0 20 0 Z" class="fill-bg stroke-main" />
    <circle cx="25" cy="27" r="5" class="fill-primary" />
    <circle cx="40" cy="27" r="5" class="fill-primary" />
    <circle cx="55" cy="27" r="5" class="fill-primary" />
  </g>

  <g id="LocationPin" transform="translate(670, 160)">
    <path d="M 20 4 C 10 4 2 12 2 22 C 2 33 20 50 20 50 C 20 50 38 33 38 22 C 38 12 30 4 20 4 Z" class="fill-accent stroke-main" />
    <circle cx="20" cy="22" r="7" class="fill-bg stroke-main" />
  </g>

  <g id="Leaf1" transform="translate(200, 320) rotate(-25) scale(1.1)">
    <path d="M 0 0 C 25 -25, 50 0, 50 25 C 25 50, 0 25, 0 0 Z" class="fill-accent stroke-main" />
    <line x1="0" y1="0" x2="40" y2="20" class="stroke-main" />
  </g>

  <g id="Leaf2" transform="translate(680, 360) rotate(60) scale(0.9)">
    <path d="M 0 0 C 25 -25, 50 0, 50 25 C 25 50, 0 25, 0 0 Z" class="fill-gray stroke-main" />
    <line x1="0" y1="0" x2="40" y2="20" class="stroke-main" />
  </g>

  <g id="Leaf3" transform="translate(70, 560) rotate(15) scale(1.2)">
    <path d="M 0 0 C 25 -25, 50 0, 50 25 C 25 50, 0 25, 0 0 Z" class="fill-primary stroke-main" />
    <line x1="0" y1="0" x2="40" y2="20" class="stroke-thin" style="stroke: #ffffff;" />
  </g>

  <g id="RecyclingArrows" transform="translate(480, 240) scale(0.8)">
    <path d="M 30 10 A 20 20 0 1 1 10 30" class="stroke-main" />
    <polygon points="10,30 2,18 18,18" class="fill-accent stroke-main" />
    <path d="M 10 30 A 20 20 0 0 1 30 10" class="stroke-main" />
    <polygon points="30,10 38,22 22,22" class="fill-accent stroke-main" />
  </g>

  <path d="M 440 130 Q 450 130 450 120 Q 450 130 460 130 Q 450 130 450 140 Q 450 130 440 130 Z" class="fill-accent stroke-main" />
  <path d="M 750 120 Q 755 120 755 115 Q 755 120 760 120 Q 755 120 755 125 Q 755 120 750 120 Z" class="fill-primary stroke-main" />
  <path d="M 310 550 Q 320 550 320 540 Q 320 550 330 550 Q 320 550 320 560 Q 320 550 310 550 Z" class="fill-bg stroke-main" />
</svg>
